<svg xmlns="http://www.w3.org/2000/svg" viewBox="0 0 640 480" role="img" aria-labelledby="ad1title">
  <title id="ad1title">Computer Academy advertisement banner</title>
  <defs>
    <linearGradient id="g1" x1="0" y1="0" x2="1" y2="1">
      <stop offset="0%" stop-color="#0f4077"/>
      <stop offset="100%" stop-color="#123a68"/>
    </linearGradient>
  </defs>
  <rect width="640" height="480" fill="url(#g1)"/>
  <g opacity="0.12" stroke="#ffffff" stroke-width="1.5">
    <line x1="0" y1="120" x2="640" y2="120"/>
    <line x1="0" y1="240" x2="640" y2="240"/>
    <line x1="0" y1="360" x2="640" y2="360"/>
    <line x1="160" y1="0" x2="160" y2="480"/>
    <line x1="320" y1="0" x2="320" y2="480"/>
    <line x1="480" y1="0" x2="480" y2="480"/>
  </g>
  <rect x="180" y="150" width="280" height="180" rx="10" fill="#0a2d52"/>
  <rect x="196" y="166" width="248" height="120" rx="4" fill="#4361ee"/>
  <rect x="210" y="180" width="90" height="8" rx="4" fill="#ffffff" opacity="0.85"/>
  <rect x="210" y="198" width="140" height="8" rx="4" fill="#ffffff" opacity="0.55"/>
  <rect x="210" y="216" width="110" height="8" rx="4" fill="#ffffff" opacity="0.55"/>
  <rect x="300" y="330" width="60" height="14" rx="3" fill="#0a2d52"/>
  <rect x="270" y="344" width="120" height="8" rx="4" fill="#0a2d52"/>
  <circle cx="320" cy="90" r="26" fill="#00000022"/>
  <text x="320" y="98" text-anchor="middle" font-family="Inter, Arial, sans-serif" font-size="26" fill="#ffffff" font-weight="700">&lt;/&gt;</text>
</svg>
